<svg xmlns="http://www.w3.org/2000/svg" viewBox="0 0 64 64" role="img" aria-label="GRQ favicon">
  <defs>
    <linearGradient id="bg" x1="0%" y1="0%" x2="100%" y2="100%">
      <stop offset="0%" stop-color="#2d7a52" />
      <stop offset="100%" stop-color="#6e4aa3" />
    </linearGradient>
  </defs>
  <rect width="64" height="64" rx="16" fill="url(#bg)" />
  <circle cx="32" cy="32" r="23" fill="rgba(255,255,255,0.10)" />
  <path
    d="M22 23h12v5h-7v8h6v5h-6v1c0 2.8 1.9 4.3 4.8 4.3 1.5 0 3.1-.2 4.4-.7l1.5 4.4c-1.9.8-4.3 1.3-6.8 1.3-6 0-8.9-3.5-8.9-9V23z"
    fill="#fffaf1"
  />
  <path
    d="M35 23h8.4c6.4 0 10.6 4.2 10.6 10.1 0 4.4-2.4 7.8-6.3 9.3l6.9 8.6h-6.7l-5.7-7.4H40V51h-5V23zm8.1 15.6c3.5 0 5.7-2.1 5.7-5.4 0-3.2-2.2-5.1-5.7-5.1H40v10.5h3.1z"
    fill="#fffaf1"
  />
  <circle cx="49" cy="49" r="8" fill="#fffaf1" />
  <circle cx="49" cy="49" r="4.7" fill="#6e4aa3" />
</svg>
